<?xml version="1.0" standalone="no"?>
<svg xmlns:xlink="http://www.w3.org/1999/xlink" id="wave" style="transform:rotate(0deg); transition: 0.3s" viewBox="0 0 1440 490" version="1.1" xmlns="http://www.w3.org/2000/svg"><defs><linearGradient id="sw-gradient-0" x1="0" x2="0" y1="1" y2="0"><stop stop-color="rgba(160, 179, 145, 1)" offset="0%"/><stop stop-color="rgba(255, 182, 193, 1)" offset="100%"/></linearGradient></defs><path style="transform:translate(0, 0px); opacity:1" fill="url(#sw-gradient-0)" d="M0,392L48,343C96,294,192,196,288,179.7C384,163,480,229,576,236.8C672,245,768,196,864,179.7C960,163,1056,180,1152,179.7C1248,180,1344,163,1440,138.8C1536,114,1632,82,1728,114.3C1824,147,1920,245,2016,269.5C2112,294,2208,245,2304,196C2400,147,2496,98,2592,98C2688,98,2784,147,2880,212.3C2976,278,3072,359,3168,343C3264,327,3360,212,3456,196C3552,180,3648,261,3744,269.5C3840,278,3936,212,4032,212.3C4128,212,4224,278,4320,302.2C4416,327,4512,310,4608,318.5C4704,327,4800,359,4896,334.8C4992,310,5088,229,5184,228.7C5280,229,5376,310,5472,326.7C5568,343,5664,294,5760,236.8C5856,180,5952,114,6048,106.2C6144,98,6240,147,6336,147C6432,147,6528,98,6624,89.8C6720,82,6816,114,6864,130.7L6912,147L6912,490L6864,490C6816,490,6720,490,6624,490C6528,490,6432,490,6336,490C6240,490,6144,490,6048,490C5952,490,5856,490,5760,490C5664,490,5568,490,5472,490C5376,490,5280,490,5184,490C5088,490,4992,490,4896,490C4800,490,4704,490,4608,490C4512,490,4416,490,4320,490C4224,490,4128,490,4032,490C3936,490,3840,490,3744,490C3648,490,3552,490,3456,490C3360,490,3264,490,3168,490C3072,490,2976,490,2880,490C2784,490,2688,490,2592,490C2496,490,2400,490,2304,490C2208,490,2112,490,2016,490C1920,490,1824,490,1728,490C1632,490,1536,490,1440,490C1344,490,1248,490,1152,490C1056,490,960,490,864,490C768,490,672,490,576,490C480,490,384,490,288,490C192,490,96,490,48,490L0,490Z"/><defs><linearGradient id="sw-gradient-1" x1="0" x2="0" y1="1" y2="0"><stop stop-color="rgba(255, 182, 193, 1)" offset="0%"/><stop stop-color="rgba(244, 231, 225, 1)" offset="100%"/></linearGradient></defs><path style="transform:translate(0, 50px); opacity:0.9" fill="url(#sw-gradient-1)" d="M0,147L48,171.5C96,196,192,245,288,294C384,343,480,392,576,408.3C672,425,768,408,864,392C960,376,1056,359,1152,302.2C1248,245,1344,147,1440,138.8C1536,131,1632,212,1728,236.8C1824,261,1920,229,2016,245C2112,261,2208,327,2304,294C2400,261,2496,131,2592,73.5C2688,16,2784,33,2880,98C2976,163,3072,278,3168,343C3264,408,3360,425,3456,400.2C3552,376,3648,310,3744,245C3840,180,3936,114,4032,81.7C4128,49,4224,49,4320,114.3C4416,180,4512,310,4608,302.2C4704,294,4800,147,4896,130.7C4992,114,5088,229,5184,285.8C5280,343,5376,343,5472,326.7C5568,310,5664,278,5760,294C5856,310,5952,376,6048,334.8C6144,294,6240,147,6336,73.5C6432,0,6528,0,6624,49C6720,98,6816,196,6864,245L6912,294L6912,490L6864,490C6816,490,6720,490,6624,490C6528,490,6432,490,6336,490C6240,490,6144,490,6048,490C5952,490,5856,490,5760,490C5664,490,5568,490,5472,490C5376,490,5280,490,5184,490C5088,490,4992,490,4896,490C4800,490,4704,490,4608,490C4512,490,4416,490,4320,490C4224,490,4128,490,4032,490C3936,490,3840,490,3744,490C3648,490,3552,490,3456,490C3360,490,3264,490,3168,490C3072,490,2976,490,2880,490C2784,490,2688,490,2592,490C2496,490,2400,490,2304,490C2208,490,2112,490,2016,490C1920,490,1824,490,1728,490C1632,490,1536,490,1440,490C1344,490,1248,490,1152,490C1056,490,960,490,864,490C768,490,672,490,576,490C480,490,384,490,288,490C192,490,96,490,48,490L0,490Z"/></svg>