<?xml version="1.0" standalone="no"?>
<svg xmlns:xlink="http://www.w3.org/1999/xlink" id="wave" style="transform:rotate(0deg); transition: 0.3s" viewBox="0 0 1440 490" version="1.1" xmlns="http://www.w3.org/2000/svg"><defs><linearGradient id="sw-gradient-0" x1="0" x2="0" y1="1" y2="0"><stop stop-color="rgba(13, 133, 246, 1)" offset="0%"/><stop stop-color="rgba(237, 124, 203, 1)" offset="100%"/></linearGradient></defs><path style="transform:translate(0, 0px); opacity:1" fill="url(#sw-gradient-0)" d="M0,49L60,73.5C120,98,240,147,360,196C480,245,600,294,720,285.8C840,278,960,212,1080,220.5C1200,229,1320,310,1440,294C1560,278,1680,163,1800,106.2C1920,49,2040,49,2160,81.7C2280,114,2400,180,2520,236.8C2640,294,2760,343,2880,351.2C3000,359,3120,327,3240,294C3360,261,3480,229,3600,204.2C3720,180,3840,163,3960,155.2C4080,147,4200,147,4320,147C4440,147,4560,147,4680,138.8C4800,131,4920,114,5040,114.3C5160,114,5280,131,5400,155.2C5520,180,5640,212,5760,220.5C5880,229,6000,212,6120,245C6240,278,6360,359,6480,334.8C6600,310,6720,180,6840,114.3C6960,49,7080,49,7200,106.2C7320,163,7440,278,7560,294C7680,310,7800,229,7920,220.5C8040,212,8160,278,8280,326.7C8400,376,8520,408,8580,424.7L8640,441L8640,490L8580,490C8520,490,8400,490,8280,490C8160,490,8040,490,7920,490C7800,490,7680,490,7560,490C7440,490,7320,490,7200,490C7080,490,6960,490,6840,490C6720,490,6600,490,6480,490C6360,490,6240,490,6120,490C6000,490,5880,490,5760,490C5640,490,5520,490,5400,490C5280,490,5160,490,5040,490C4920,490,4800,490,4680,490C4560,490,4440,490,4320,490C4200,490,4080,490,3960,490C3840,490,3720,490,3600,490C3480,490,3360,490,3240,490C3120,490,3000,490,2880,490C2760,490,2640,490,2520,490C2400,490,2280,490,2160,490C2040,490,1920,490,1800,490C1680,490,1560,490,1440,490C1320,490,1200,490,1080,490C960,490,840,490,720,490C600,490,480,490,360,490C240,490,120,490,60,490L0,490Z"/><defs><linearGradient id="sw-gradient-1" x1="0" x2="0" y1="1" y2="0"><stop stop-color="rgba(237, 124, 203, 1)" offset="0%"/><stop stop-color="rgba(13, 133, 246, 1)" offset="100%"/></linearGradient></defs><path style="transform:translate(0, 50px); opacity:0.9" fill="url(#sw-gradient-1)" d="M0,49L60,73.5C120,98,240,147,360,147C480,147,600,98,720,106.2C840,114,960,180,1080,204.2C1200,229,1320,212,1440,171.5C1560,131,1680,65,1800,65.3C1920,65,2040,131,2160,130.7C2280,131,2400,65,2520,81.7C2640,98,2760,196,2880,261.3C3000,327,3120,359,3240,343C3360,327,3480,261,3600,228.7C3720,196,3840,196,3960,204.2C4080,212,4200,229,4320,228.7C4440,229,4560,212,4680,187.8C4800,163,4920,131,5040,106.2C5160,82,5280,65,5400,81.7C5520,98,5640,147,5760,163.3C5880,180,6000,163,6120,196C6240,229,6360,310,6480,294C6600,278,6720,163,6840,114.3C6960,65,7080,82,7200,73.5C7320,65,7440,33,7560,32.7C7680,33,7800,65,7920,89.8C8040,114,8160,131,8280,130.7C8400,131,8520,114,8580,106.2L8640,98L8640,490L8580,490C8520,490,8400,490,8280,490C8160,490,8040,490,7920,490C7800,490,7680,490,7560,490C7440,490,7320,490,7200,490C7080,490,6960,490,6840,490C6720,490,6600,490,6480,490C6360,490,6240,490,6120,490C6000,490,5880,490,5760,490C5640,490,5520,490,5400,490C5280,490,5160,490,5040,490C4920,490,4800,490,4680,490C4560,490,4440,490,4320,490C4200,490,4080,490,3960,490C3840,490,3720,490,3600,490C3480,490,3360,490,3240,490C3120,490,3000,490,2880,490C2760,490,2640,490,2520,490C2400,490,2280,490,2160,490C2040,490,1920,490,1800,490C1680,490,1560,490,1440,490C1320,490,1200,490,1080,490C960,490,840,490,720,490C600,490,480,490,360,490C240,490,120,490,60,490L0,490Z"/></svg>